<?xml version="1.0" encoding="UTF-8"?>
<svg width="700.05" height="700.05" version="1.1" viewBox="0 0 896.06 896.06"
    xmlns="http://www.w3.org/2000/svg">
    <path
        d="m448.03 0a448.03 448.03 0 1 1 0 896.06 448.03 448.03 0 0 1 0-896.06zm67.2 275.07c33.28 0 60.288-23.104 60.288-57.344s-27.072-57.344-60.288-57.344c-33.28 0-60.16 23.104-60.16 57.344s26.88 57.344 60.16 57.344zm11.712 360.13c0-6.848 2.368-24.64 1.024-34.752l-52.608 60.544c-10.88 11.456-24.512 19.392-30.912 17.28a12.992 12.992 0 0 1-8.256-14.72l87.68-276.99c7.168-35.136-12.544-67.2-54.336-71.296-44.096 0-108.99 44.736-148.48 101.5 0 6.784-1.28 23.68 0.064 33.792l52.544-60.608c10.88-11.328 23.552-19.328 29.952-17.152a12.8 12.8 0 0 1 7.808 16.128l-86.912 275.65c-10.048 32.256 8.96 63.872 55.04 71.04 67.84 0 107.9-43.648 147.46-100.42z" />
</svg>